<svg xmlns="http://www.w3.org/2000/svg" viewBox="0 0 500 500"><defs><style>.cls-1{fill:#666;}.cls-2{fill:#eaeaea;}.cls-3{fill:#6cc;}.cls-4{fill:#ff6;}.cls-5{fill:#fff;}.cls-6{fill:silver;}</style></defs><g id="Layer_3" data-name="Layer 3"><polygon class="cls-1" points="119.13 74.64 155.16 39.58 427.84 39.58 435.63 48.34 435.63 259.67 456.08 259.67 464.85 270.38 464.85 364.85 368.44 458.34 40.24 458.34 40.24 415.49 101.6 363.88 101.6 306.42 116.21 296.68 119.13 74.64"/><polygon class="cls-2" points="384.3 280.03 127.42 280.03 132.16 78.19 143.53 65.87 384.3 65.87 384.3 280.03"/><rect class="cls-3" x="157.81" y="91.19" width="204.51" height="166.53"/><rect class="cls-4" x="181.46" y="144.76" width="119.79" height="75.96"/><rect class="cls-5" x="190.22" y="154.49" width="102.26" height="58.43"/><polygon class="cls-6" points="80.17 410.62 111.34 380.43 380.12 380.43 351.88 410.62 80.17 410.62"/></g></svg>