<svg xmlns="http://www.w3.org/2000/svg" viewBox="0 0 500 500"><defs><style>.cls-1{fill:#666;}.cls-2{fill:#292929;}.cls-3{fill:silver;}.cls-4{fill:#e7e7d6;}.cls-5{fill:green;}</style></defs><g id="Layer_4" data-name="Layer 4"><polygon class="cls-1" points="55.3 91.35 95.83 372.11 281.69 474.93 391.43 420.55 454.7 182.3 454.7 129.91 227.32 48.84 163.06 48.84 55.3 91.35"/><polygon class="cls-2" points="358.8 175.38 55.3 91.35 163.06 48.84 227.32 48.84 358.8 175.38"/><polygon class="cls-3" points="454.7 129.91 227.32 48.84 358.8 175.38 454.7 129.91"/><polygon class="cls-4" points="359.61 175.56 281.69 474.93 95.83 372.11 55.3 91.35 359.61 175.56"/><path class="cls-5" d="M150.21,189.22s62.28-8.9,90,36.58l5-20.85,7.23,63.12L198.06,257.8l19-16s-14.83-44.11-63.88-38Z"/><path class="cls-5" d="M170.13,351.9l.46-9.73c-32-31.5-22.7-88-22.7-88L172.45,256l-38-58.83L93.23,237.93l27.33,7.42S106.2,311.59,170.13,351.9Z"/><path class="cls-5" d="M266.49,278.24H254.44c29.19,79.21-39.38,61.61-39.38,61.61V314.37L181.25,351.9l51.42,39.84.93-26.87S309.11,336.14,266.49,278.24Z"/></g></svg>