<svg xmlns="http://www.w3.org/2000/svg" viewBox="0 0 500 500"><defs><style>.cls-1{fill:#d4d0d7;}</style></defs><g id="Layer_7" data-name="Layer 7"><polygon class="cls-1" points="54.17 155.03 177.58 81.68 333.79 81.68 457.2 155.03 457.2 327.63 356.23 365.94 356.23 432.06 158.6 432.06 160.32 365.94 54.17 325.91 54.17 155.03"/><polygon points="127.53 204.22 193.12 204.22 213.83 224.07 213.83 274.99 194.84 290.52 127.53 290.52 107.68 274.99 107.68 221.49 127.53 204.22"/><polygon points="319.12 204.22 384.7 204.22 405.42 224.94 405.42 274.13 390.6 290.52 319.12 293.11 299.27 272.4 299.27 223.21 319.12 204.22"/><rect x="228.5" y="307.79" width="17.26" height="34.52"/><rect x="266.47" y="307.79" width="16.4" height="37.97"/><rect x="193.98" y="396.68" width="19.85" height="35.38"/><rect x="245.76" y="396.68" width="20.71" height="35.38"/><rect x="299.27" y="396.68" width="20.71" height="35.38"/></g></svg>